<?xml version="1.0" standalone="no"?><!DOCTYPE svg PUBLIC "-//W3C//DTD SVG 1.1//EN" "http://www.w3.org/Graphics/SVG/1.1/DTD/svg11.dtd"><svg class="icon" width="200px" height="200.00px" viewBox="0 0 1024 1024" version="1.1" xmlns="http://www.w3.org/2000/svg"><path d="M654.35 375.31s60.67-37.38 125.34-14.01c0 0-16.64-73.57-98.7-64.3 0 0-6-55-66.7-88.11 0 0 26.17 18.72 4.57 109.8 0 0-18.26-70.81-98.11-73.28 0 0 45.23 47.6 53.23 98.6 0.49 3.12 0.67 9.23 0.13 15.29-12.61-22.05-69.96-35.45-69.96-35.45 39.52 38.3 60.55 66.4 44.52 105.66-0.52 1.28 69.86 27.09 69.86 27.09s37.09-60.7 101.74-36.85c0.01-0.01-11.75-37.77-65.92-44.44z" fill="#ADDB53" /><path d="M587.62 477.36c-2.07 0-4.16-0.36-6.19-1.1-0.21-0.08-20.84-7.65-41.32-15.37-12.08-4.56-21.77-8.28-28.79-11.07-14.87-5.91-19.88-7.9-23.17-15.34a18.16 18.16 0 0 1-0.21-14.12c13.29-32.55 2.35-56.29-48.77-105.83a17.996 17.996 0 0 1-3.27-21.55 17.99 17.99 0 0 1 19.9-8.9c0.75 0.17 18.47 4.35 38.3 11.96 8.72 3.35 16.48 6.82 23.3 10.42-7.11-36.19-42.19-71.85-57.3-84.08a17.999 17.999 0 0 1-5.55-20.26c2.69-7.24 9.72-11.95 17.43-11.72 55.68 1.72 88.99 28.7 107.16 51.13 4.48-46.72-6.83-61.26-8.05-62.67-6.45-5.34-8.4-14.52-4.52-22.07 4.08-7.94 13.35-11.7 21.8-8.83 55.27 18.76 72.23 56.91 76.73 85.61 1.84 11.73 1.71 22.79 0.85 31.97 43.58 0.52 74.3 16.73 93.31 31.5 23.99 18.64 34.72 38.6 35.86 40.81 3.4 6.58 2.42 14.57-2.46 20.14a18.014 18.014 0 0 1-19.65 5.06c-33.1-11.96-65.71-8.64-90.4-2.11 33.29 19.19 42.58 47.63 43.1 49.28 2.04 6.55 0.18 13.68-4.79 18.41a18.014 18.014 0 0 1-18.63 3.84c-25.98-9.59-50.44-6.53-72.68 9.1-17.08 12-26.54 27.03-26.63 27.18-3.34 5.47-9.23 8.61-15.36 8.61z m-60.97-60.18c12.99 5.11 33.76 12.94 54.58 20.64 6.18-7.44 15.48-17.13 27.69-25.71 17.03-11.97 35.36-18.88 54.37-20.68-8.91-4.89-20.45-8.96-35.31-10.79a17.997 17.997 0 0 1-15.39-14.03 18.006 18.006 0 0 1 8.14-19.16c2.48-1.53 48.26-29.14 107.23-28.49-18.61-11.58-45.3-20.53-81.77-16.42a17.993 17.993 0 0 1-19.14-23.45c0.04-0.12 6-19.42 2.3-41.06-2.03-11.84-6.59-22.12-13.66-30.8 1.85 25.11-1.55 56.07-10.16 92.4a17.994 17.994 0 0 1-17.34 13.84h-0.18c-8.2 0-15.38-5.55-17.43-13.51-0.53-1.98-10.22-36.38-43.67-57.46 20.85 29.73 30.03 58.5 27.3 85.65-0.19 1.9-0.39 4.45-0.63 7.4-0.23 2.93-0.5 6.23-0.82 9.79-0.71 7.83-6.41 14.3-14.09 15.97a18.009 18.009 0 0 1-19.46-8.65c-1.05-1.84-2.78-3.74-5.05-5.64 1.78 2.99 3.43 5.99 4.91 9.01 9.86 20.14 12.38 40.28 7.58 61.15z m164.76 3.98zM572.08 179.63c0.01 0 0.01 0.01 0.02 0.01 0-0.01-0.01-0.01-0.02-0.01z m-0.01-0.02c0.01 0 0.01 0.01 0.02 0.01-0.01 0-0.02 0-0.02-0.01z m-0.02-0.01z" fill="#4BA341" /><path d="M447.07 421.42c3.9-2.54 7.93-4.88 12.16-6.82 5.02-2.31 10.25-4.14 15.58-5.57 5.35-1.44 10.81-2.47 16.3-3.19 3.68-0.48 7.39-0.87 11.09-1.05 43.61-2.65 89.35 9.9 125.83 33.83 32.43 21.27 57.16 53.07 65.37 91.4 13.36 62.31-31.67 199.02-108.95 279.06s-285.33-4.02-267.19-140.54c8.42-63.36 28.98-125.86 65.31-178.84 3.35-4.89 6.79-9.73 10.33-14.49 3.59-4.81 7.29-9.55 11.13-14.16 3.85-4.62 7.84-9.11 12-13.44 4.15-4.32 8.47-8.48 12.98-12.42 4.83-4.22 9.88-8.21 15.17-11.84 0.96-0.66 1.92-1.3 2.89-1.93z" fill="#FFE20D" /><path d="M485.64 864.68c-20.69 0-42.91-3.03-65.49-9.05-42.45-11.33-81.32-32.24-109.43-58.89-20.17-19.11-34.56-40.71-42.78-64.19-9.17-26.21-10.38-54.12-3.61-82.94 13.23-56.3 32.39-108.25 56.96-154.39 16.75-31.46 34.04-56.5 52.87-76.56 24.84-26.46 52.1-43.5 81.03-50.64 13.19-3.26 26.89-4.49 40.72-3.65 33.92 2.04 67.86 10.87 98.17 25.52 33.82 16.36 61.11 39.31 78.92 66.39 11.67 17.75 19.45 38.13 22.49 58.95 5 34.21 3.05 92.78-34.59 177.51-2.35 5.28-4.72 10.77-7.24 16.59-12.01 27.72-25.61 59.14-43.83 86.44-22.46 33.66-47.47 54.14-76.44 62.62-14.41 4.19-30.55 6.29-47.75 6.29z m1.89-464.57c-8.07 0-16.03 0.96-23.72 2.86-40.21 9.93-77.47 46.66-110.75 109.17-23.1 43.4-41.17 92.42-53.69 145.7-5.18 22.04-4.32 43.18 2.55 62.82 6.3 18.01 17.59 34.81 33.56 49.94 23.83 22.59 57.2 40.43 93.95 50.24 34.56 9.23 68.76 10.31 93.81 2.98 47.59-13.92 75.18-77.63 97.35-128.81 2.55-5.89 4.96-11.46 7.38-16.89 18.85-42.43 39.68-104.23 31.87-157.69-2.28-15.65-8.14-30.99-16.94-44.36-21.1-32.08-72.83-71.17-149.17-75.76-2.07-0.13-4.14-0.2-6.2-0.2z" fill="#EFC100" /><path d="M603.98 669.57c-3.75 0-7.53-1.17-10.76-3.58-82.06-61.32-115.05-184.85-116.42-190.08-2.51-9.62 3.25-19.45 12.87-21.96 9.61-2.51 19.45 3.25 21.96 12.87 0.38 1.45 31.37 116.71 103.14 170.34 7.96 5.95 9.6 17.23 3.64 25.19-3.53 4.72-8.95 7.22-14.43 7.22zM567.76 739.59c-2.59 0-5.22-0.56-7.72-1.75-45.55-21.68-85.34-61.92-115.06-116.39-22.14-40.58-31.03-74.73-31.4-76.17-2.47-9.63 3.34-19.44 12.97-21.91 9.62-2.47 19.43 3.33 21.9 12.95 0.12 0.47 8.44 32.02 28.57 68.68 18.13 33.02 49.94 77.23 98.48 100.33 8.98 4.27 12.79 15.01 8.52 23.99-3.08 6.48-9.53 10.27-16.26 10.27zM500.04 812.22c-2.59 0-5.23-0.56-7.72-1.75-45.55-21.68-85.34-61.92-115.06-116.39-22.14-40.58-31.03-74.73-31.4-76.17-2.47-9.63 3.34-19.44 12.97-21.91 9.62-2.47 19.43 3.33 21.9 12.95 0.12 0.47 8.44 32.02 28.57 68.68 18.13 33.02 49.94 77.23 98.48 100.33 8.98 4.27 12.79 15.01 8.52 23.99-3.08 6.48-9.54 10.27-16.26 10.27z" fill="#EFC100" /><path d="M369.05 688.89c-7.14 0-13.9-4.28-16.71-11.31-3.7-9.23 0.78-19.71 10.01-23.4 139.14-55.77 195.51-173.68 196.06-174.87 4.21-9.01 14.92-12.9 23.93-8.69 9.01 4.21 12.9 14.92 8.69 23.93-0.64 1.37-16.01 33.9-50.21 73.91-31.42 36.76-85.57 87.27-165.08 119.14-2.2 0.87-4.47 1.29-6.69 1.29zM407.73 784.65c-7.14 0-13.9-4.28-16.71-11.31-3.7-9.23 0.78-19.71 10.01-23.4 139.14-55.77 195.51-173.68 196.06-174.87 4.21-9.01 14.92-12.9 23.93-8.69 9.01 4.21 12.9 14.92 8.69 23.93-0.64 1.37-16.01 33.9-50.21 73.91-31.42 36.76-85.57 87.27-165.08 119.14-2.2 0.88-4.47 1.29-6.69 1.29z" fill="#EFC100" /></svg>