<?xml version="1.0" standalone="no"?><!DOCTYPE svg PUBLIC "-//W3C//DTD SVG 1.1//EN" "http://www.w3.org/Graphics/SVG/1.1/DTD/svg11.dtd"><svg class="icon" width="200px" height="200.00px" viewBox="0 0 1024 1024" version="1.1" xmlns="http://www.w3.org/2000/svg"><path d="M628.59 435.11s13.12 1.98 19.12 15.94c0 0 24.34 5.56 25.7 18.98 0 0 3.4 12.64-6.61 13 0 0 27.56 23.11 13.54 37.79 0 0-8.48 10.23-20.76 2.16 0 0-36.44 18.88-37.14-24.77-0.3-18.39-40.04-33.07-65.94-20.8-15.19 7.2-14.81 16.49-14.81 16.49l-10.41-5.3s6.19-12.02 4.75-15.77c-6.24-16.21-20.33-46.51-45.28-58.44-18.33-8.77-45.36-6.7-58.65 1.92-5.63 3.65-24.83 3.73-11.61-22.27 8.08-15.89 22.17-17.81 22.17-17.81s-32.25-21.1 11.19-25.21c12.05-1.14 27.66 6.8 27.66 6.8s-14.61-29.25 24.83-3.73c22.66 18.85 39.39 48.34 29.83 10.89 0 0-19.98-7.69-12.07-20.03 0 0-22.12-11.26-16.24-22.81 5.88-11.55 12.38-8.24 12.38-8.24s-19.48-39-5.22-44.47c14.25-5.47 24.39 19.68 24.39 19.68s10.85-18.11 22.4-8.6c11.54 9.51 20.38 34-0.82 59.57 0 0 22.46 4.16 16.08 26.36-6.38 22.2-5.83 24.04-5.83 24.04s11.87-39.14 39.41-57.85c6.11-2.35 4.47 4.09 10.75-1.8 6.28-5.9 27.98-42.12 56.61-27.55 28.63 14.57-11.97 55.72-39.07 51.02 0 0 11.38 13.06-3.61 19.98s-24.43 9.38-24.43 9.38 15.82-6.13 42.42 9.21c0 0 35.08-13.41 52.46 13.61 17.38 27.02-39.02 21.96-39.02 21.96s-11.37 16.87-38.14 5.07" fill="#A4D118" /><path d="M630.43 539.93c-6.15 0-12.73-1.27-18.9-4.95-12.31-7.35-18.72-21.35-19.04-41.62-0.13-0.58-2.21-4.05-9.28-7.59-11.2-5.61-29.25-8.12-42.07-2.04-5.76 2.73-7.43 5.17-7.82 5.9-0.39 4.61-2.89 8.83-6.84 11.37a15 15 0 0 1-14.9 0.75l-11.49-5.85c-3.56-1.81-6.25-4.96-7.47-8.76s-0.89-7.93 0.94-11.48c1.32-2.58 2.73-5.92 3.43-8.06-10.86-26.94-25.46-45.86-41.3-53.43-15.65-7.48-39.78-5.51-50.09 1.17-8.82 5.72-23.61 6.52-33.11-2.03-7.06-6.36-13-18.79-1.23-41.93 3.82-7.5 8.54-12.99 13.29-17.01-2.69-4.93-4.1-10.68-2.55-16.98 4.56-18.45 28.87-20.75 38.02-21.62 5.57-0.53 11.39 0.13 16.78 1.3 0.98-1.69 2.22-3.21 3.72-4.55 7.02-6.28 15.82-6.04 25.29-2.6-2.16-8.04 0.18-14.58 1.86-17.88 2.25-4.42 4.75-7.75 7.29-10.25-0.53-1.4-1.06-2.85-1.58-4.34-5.68-16.4-6.68-28.25-3.17-37.3 2.46-6.33 7.2-11.11 13.35-13.47 5.94-2.28 21.04-5.54 35.45 11.98 2.8-1.58 5.94-2.82 9.37-3.41 7.64-1.32 15.36 0.84 21.73 6.09 10.21 8.41 17.13 22.02 18.49 36.39 0.85 8.92-0.07 21.37-7.22 35.27 1.4 1.18 2.76 2.5 4.05 3.98 5.87-6.99 12.71-13.58 20.61-18.95 0.95-0.65 1.98-1.18 3.05-1.6 3.51-1.35 6.59-1.71 9.21-1.57 0.34-0.42 0.68-0.84 1.01-1.24 5.4-6.64 14.44-17.75 26.31-25.43 16.41-10.6 33.69-11.82 49.99-3.53 16.13 8.21 22.66 23.82 17.03 40.74-3.97 11.94-13.81 23.82-26.99 32.6-6.72 4.48-13.65 7.72-20.48 9.65a24.96 24.96 0 0 1-4.26 11.94c0.74 0.36 1.49 0.73 2.25 1.11 19.14-4.92 50.94-4.85 68.92 23.1 9.53 14.82 5.69 25.72 2.55 30.91-5.92 9.77-18.13 15.18-37.34 16.52-5.58 0.39-10.9 0.38-14.93 0.25-1.11 0.91-2.33 1.81-3.64 2.66 14.28 7.95 18.76 17.76 19.85 25.16 0.77 3.42 1.79 10.51-0.79 17.46 6.14 7.52 12.39 17.77 13 28.81 0.47 8.51-2.37 16.31-8.22 22.58-1.53 1.73-5.47 5.66-11.64 8.27-7.43 3.15-15.37 3.27-22.98 0.47-4.63 1.53-10.81 3.04-17.51 3.04z m-71.82-89.82c16.56 0 32.48 5.04 43.45 11.86 12.97 8.06 20.22 19.04 20.41 30.91 0.16 10.18 2.48 15.16 4.41 16.33 3.05 1.85 10.61-0.05 14.72-2.09 4.84-2.58 10.51-2.21 15.1 0.8 1.85 1.22 2.46 1.13 3.26 0.38 0.25-0.35 0.1-0.11 0.57-0.6 0.13-0.14 0.2-0.23 0.24-0.28 0.45-3.38-6.8-13.56-13.97-19.57a15.013 15.013 0 0 1-4.55-16.37 15 15 0 0 1 6.33-7.9c-2.16-2.56-10.13-6.42-16.55-7.88-4.67-1.07-8.55-4.3-10.44-8.7-3.13-7.29-9.5-8.67-9.56-8.68-7.73-1.17-13.19-8.04-12.74-15.69-0.14-2.31 0.25-4.69 1.25-6.95 3.34-7.58 12.2-11.01 19.78-7.67 17.28 7.62 23.54-0.18 23.59-0.26 3.05-4.53 8.34-7.05 13.78-6.56 10.49 0.92 22.69 0.14 28.81-1.62-12.38-18.46-38.58-9.06-39.7-8.64-4.22 1.62-8.86 1.21-12.78-1.05-18.57-10.72-30.35-9.77-33.21-9.31-1.4 0.42-2.19 0.63-2.31 0.66-7.69 2.01-15.62-2.33-18.06-9.9-2.44-7.57 1.44-15.72 8.85-18.6 0.41-0.16 1.38-0.51 2.88-0.89 2.9-0.88 10.67-3.41 21.58-8.35-3.88-4.66-4.4-11.08-1.49-16.5 3.06-5.68 9.61-8.56 15.96-7.46 12.3 2.13 32.21-12.48 35.92-23.63 0.84-2.54 0.98-2.93-2.17-4.53-13.08-6.66-24.79 3.15-39.42 21.14-2.31 2.84-4.14 5.09-5.99 6.83-5.9 5.54-11.92 7.76-17.95 6.64-18.82 15.41-30.33 42.73-33.32 52.61a15.014 15.014 0 0 1-14.35 10.65c-6.6 0-12.43-4.32-14.35-10.64-1.19-3.91-1.91-6.27 6.36-35.03 0.49-1.69 1.15-4.78 0.16-6.45-1.19-2-4.74-3.39-6.31-3.76-5.3-0.85-9.51-4.42-11.42-9.44-1.92-5.05-0.75-10.71 2.71-14.87 7.82-9.44 11.5-19.3 10.62-28.51-0.64-6.71-3.49-11.81-6.34-14.8-1.24 1.11-2.74 2.85-3.7 4.39-2.88 4.94-8.25 7.72-13.96 7.31-5.72-0.41-10.65-4.14-12.79-9.46-0.15-0.36-0.3-0.72-0.47-1.09 1.76 5.27 4.09 11.01 6.65 16.13a15.015 15.015 0 0 1-2.85 17.35c-2.3 2.28-5.2 3.69-8.24 4.17 2.36 2.17 5.96 4.67 8.74 6.08 3.78 1.92 6.57 5.35 7.67 9.44 0.85 3.12 0.66 6.4-0.5 9.37 1.34 0.98 3.23 2.06 4.82 2.7 4.63 1.71 7.83 5.47 9.05 10.25 1.88 7.36 2.93 12.67 3.32 16.72 1.13 11.89-4.06 17.38-8.61 19.89-4.88 2.69-12.78 4.07-22.62-4.65-3-2.66-6.35-6.19-10.23-10.29-5.47-5.78-11.64-12.3-18.23-17.88-1.6-1.02-3.06-1.93-4.4-2.73-0.74 1.99-1.92 3.85-3.5 5.42-4.6 4.56-11.62 5.62-17.39 2.69-5.58-2.81-16.23-6.53-22.31-5.94-1.95 0.18-3.65 0.4-5.13 0.62 5.12 3.56 7.86 9.86 6.33 15.93-1.56 6.15-6.46 10.59-12.76 11.19-1.48 0.33-8.6 2.39-13.29 11.61-0.14 0.27-0.27 0.54-0.4 0.8 20.58-8.78 50.35-8.57 71.04 1.32 29.26 13.99 46.99 45.94 56.84 70.94 0.91-0.49 1.85-0.96 2.84-1.43 9.68-4.57 20.13-6.48 30.32-6.48z m101.22 58.38z m-126.48-20.68v0z m0-0.03v0z m0-0.03v0z m-45.47-184.64c0.01 0 0.01 0.01 0.02 0.01 0-0.01-0.01-0.01-0.02-0.01z m107.58-5.12z" fill="#84BA00" /><path d="M425.58 520.63c23.23-37.16 50.53-60.55 112.37-28.32 74.18 38.67 60.87 82.76 40.3 114.91-116.94 182.73-197.66 221.55-233.45 206C319 802 334.07 667.03 425.58 520.63z" fill="#F79C39" /><path d="M322.76 846.64c-12.22 0-20.88-3.47-26.59-7.09-44.1-27.97-21.75-129.39 13.86-214.98 18.29-43.95 41.89-89.15 70.14-134.35 16.77-26.83 35.69-43.54 57.85-51.1 26.28-8.96 56.71-4.49 90.47 13.29 36.93 19.46 59.54 44.02 67.2 73 4.74 17.93 5.86 46.38-15.72 80.1-58.69 91.7-117.67 161.66-170.57 202.32-39.3 30.2-67.38 38.81-86.64 38.81zM410.7 509.3c-27.21 43.53-49.9 86.97-67.43 129.1-19.44 46.73-31.44 89.19-34.7 122.81-3.15 32.47 3.13 45.56 6.88 47.94 5.05 3.2 27.83 4.08 72-29.86 34.61-26.6 90.85-81.71 162.18-193.18 8.02-12.54 16.48-31.64 11.24-51.5-4.98-18.84-21.52-35.78-49.17-50.35-24.99-13.17-45.29-16.79-62.07-11.07-14 4.78-26.73 16.59-38.93 36.11z" fill="#EF8B26" /><path d="M359.99 664c-2.49 0-5.02-0.52-7.44-1.62l-33-15c-9.05-4.11-13.05-14.79-8.94-23.83 4.11-9.05 14.79-13.05 23.83-8.94l33 15c9.05 4.11 13.05 14.79 8.94 23.83-3.01 6.64-9.55 10.56-16.39 10.56zM409.98 801c-3.12 0-6.29-0.81-9.17-2.53l-32-19c-8.55-5.08-11.36-16.12-6.29-24.67 5.08-8.55 16.12-11.36 24.67-6.29l32 19c8.55 5.08 11.36 16.12 6.29 24.67-3.37 5.68-9.35 8.82-15.5 8.82zM530.98 646c-3.03 0-6.1-0.76-8.91-2.38l-35-20c-8.63-4.93-11.63-15.93-6.7-24.56 4.93-8.63 15.93-11.63 24.56-6.7l35 20c8.63 4.93 11.63 15.93 6.7 24.56-3.32 5.82-9.4 9.08-15.65 9.08z" fill="#EF8B26" /></svg>