<?xml version="1.0" standalone="no"?><!DOCTYPE svg PUBLIC "-//W3C//DTD SVG 1.1//EN" "http://www.w3.org/Graphics/SVG/1.1/DTD/svg11.dtd"><svg class="icon" width="200px" height="200.00px" viewBox="0 0 1024 1024" version="1.1" xmlns="http://www.w3.org/2000/svg"><path d="M444.3 422m-59.67 0a59.67 59.67 0 1 0 119.34 0 59.67 59.67 0 1 0-119.34 0Z" fill="#7E3499" /><path d="M423.16 484.87c-12.59 0-25.36-2.91-37.31-9.06-40.15-20.65-56.01-70.11-35.37-110.26 20.65-40.15 70.11-56.02 110.26-35.37 40.15 20.65 56.01 70.11 35.37 110.26-14.5 28.21-43.23 44.43-72.95 44.43z m-20.21-42.31c21.81 11.22 48.68 2.6 59.9-19.21 11.22-21.81 2.6-48.68-19.21-59.9-21.81-11.22-48.69-2.6-59.9 19.21-11.22 21.81-2.6 48.68 19.21 59.9z" fill="#742B93" /><path d="M508.48 449.75m-59.67 0a59.67 59.67 0 1 0 119.34 0 59.67 59.67 0 1 0-119.34 0Z" fill="#7E3499" /><path d="M501.07 544.08c-12.59 0-25.36-2.91-37.31-9.06-19.45-10-33.84-26.98-40.52-47.81-6.68-20.83-4.85-43.01 5.15-62.46 10-19.45 26.98-33.84 47.81-40.52 20.82-6.68 43-4.85 62.46 5.15 19.45 10 33.84 26.98 40.52 47.81 6.68 20.83 4.85 43.01-5.15 62.46-14.52 28.21-43.24 44.43-72.96 44.43z m0.18-126.37c-4.57 0-9.16 0.71-13.63 2.15-11.31 3.63-20.54 11.45-25.97 22.01-5.43 10.57-6.43 22.62-2.8 33.93 3.63 11.31 11.45 20.54 22.01 25.97 21.81 11.22 48.68 2.6 59.9-19.21 5.43-10.57 6.43-22.62 2.8-33.93-3.63-11.31-11.45-20.54-22.01-25.97-6.39-3.29-13.32-4.95-20.3-4.95z" fill="#742B93" /><path d="M591.58 377.03m-51.2 0a51.2 51.2 0 1 0 102.4 0 51.2 51.2 0 1 0-102.4 0Z" fill="#7E3499" /><path d="M540.94 371.22m-51.2 0a51.2 51.2 0 1 0 102.4 0 51.2 51.2 0 1 0-102.4 0Z" fill="#7E3499" /><path d="M698.57 476.75m-65.56 0a65.56 65.56 0 1 0 131.12 0 65.56 65.56 0 1 0-131.12 0Z" fill="#7E3499" /><path d="M651.83 574.4m-65.56 0a65.56 65.56 0 1 0 131.12 0 65.56 65.56 0 1 0-131.12 0Z" fill="#7E3499" /><path d="M698.48 564.91c-13.83 0-27.55-3.29-40.2-9.8-20.93-10.76-36.42-29.03-43.6-51.44-7.19-22.41-5.22-46.28 5.54-67.21s29.03-36.42 51.44-43.6c22.41-7.19 46.28-5.22 67.21 5.54s36.42 29.03 43.6 51.44c7.19 22.41 5.22 46.28-5.54 67.21s-29.03 36.42-51.44 43.6c-8.87 2.85-17.96 4.26-27.01 4.26z m0.15-138.89c-5.21 0-10.44 0.81-15.54 2.45-12.9 4.14-23.42 13.05-29.61 25.1-6.2 12.05-7.33 25.79-3.19 38.68 4.14 12.9 13.05 23.42 25.1 29.61 12.05 6.2 25.79 7.33 38.68 3.19 12.9-4.14 23.42-13.05 29.61-25.1 6.2-12.05 7.33-25.79 3.19-38.68-4.14-12.9-13.05-23.42-25.1-29.61-7.28-3.75-15.18-5.64-23.14-5.64z" fill="#742B93" /><path d="M647.58 663.59c-12.85 0-25.6-3.06-37.36-9.11-40.15-20.65-56.01-70.11-35.37-110.26 10-19.45 26.98-33.84 47.81-40.52 20.82-6.68 43-4.85 62.46 5.15 19.45 10 33.84 26.98 40.52 47.81 6.68 20.83 4.85 43.01-5.15 62.46-10 19.45-26.98 33.84-47.81 40.52-8.24 2.64-16.69 3.95-25.1 3.95z m-20.25-42.36c10.56 5.43 22.62 6.43 33.93 2.8s20.54-11.45 25.97-22.01c5.43-10.57 6.43-22.62 2.8-33.93-3.63-11.31-11.45-20.54-22.01-25.97-10.57-5.43-22.62-6.43-33.93-2.8-11.31 3.63-20.54 11.45-25.97 22.01-11.22 21.81-2.6 48.68 19.21 59.9z" fill="#742B93" /><path d="M570.8 506.88m-59.67 0a59.67 59.67 0 1 0 119.34 0 59.67 59.67 0 1 0-119.34 0Z" fill="#7E3499" /><path d="M570.71 588.8c-12.85 0-25.6-3.06-37.36-9.11-19.45-10-33.84-26.98-40.52-47.81-6.68-20.83-4.85-43.01 5.15-62.46 10-19.45 26.98-33.84 47.81-40.52 20.83-6.68 43.01-4.85 62.46 5.15 40.15 20.65 56.01 70.11 35.37 110.26-10 19.45-26.98 33.84-47.81 40.52a81.603 81.603 0 0 1-25.1 3.97z m0.14-126.42c-4.57 0-9.16 0.71-13.63 2.15-11.31 3.63-20.54 11.45-25.97 22.01-5.43 10.57-6.43 22.62-2.8 33.93 3.63 11.31 11.45 20.54 22.01 25.97 10.57 5.43 22.62 6.43 33.93 2.8 11.31-3.63 20.54-11.45 25.97-22.01 11.22-21.81 2.6-48.68-19.21-59.9-6.39-3.29-13.32-4.95-20.3-4.95z" fill="#742B93" /><path d="M555.22 677.24m-63.56 0a63.56 63.56 0 1 0 127.12 0 63.56 63.56 0 1 0-127.12 0Z" fill="#7E3499" /><path d="M555.13 764.5c-13.69 0-27.27-3.26-39.79-9.7-42.77-22-59.67-74.68-37.67-117.45 10.65-20.72 28.74-36.05 50.92-43.16 22.18-7.12 45.81-5.17 66.53 5.49s36.04 28.74 43.16 50.92 5.17 45.81-5.49 66.53-28.74 36.04-50.92 43.16c-8.79 2.81-17.79 4.21-26.74 4.21z m0.14-134.67c-4.87 0-9.76 0.76-14.52 2.29-12.05 3.87-21.88 12.19-27.66 23.45-11.95 23.23-2.77 51.86 20.47 63.81 11.25 5.79 24.09 6.85 36.14 2.98 12.05-3.87 21.88-12.19 27.66-23.45 11.95-23.23 2.77-51.86-20.47-63.81-6.8-3.49-14.18-5.27-21.62-5.27z" fill="#742B93" /><path d="M453.42 723.99m-59.67 0a59.67 59.67 0 1 0 119.34 0 59.67 59.67 0 1 0-119.34 0Z" fill="#7E3499" /><path d="M453.28 805.85c-12.59 0-25.36-2.91-37.31-9.05-40.15-20.65-56.01-70.11-35.37-110.26 10-19.45 26.98-33.84 47.81-40.52 20.82-6.68 43-4.85 62.46 5.15 19.45 10 33.84 26.98 40.52 47.81 6.68 20.83 4.85 43.01-5.15 62.46-14.51 28.19-43.23 44.41-72.96 44.41z m-20.2-42.31c21.81 11.22 48.69 2.6 59.9-19.21 5.43-10.57 6.43-22.62 2.8-33.93-3.63-11.31-11.45-20.54-22.01-25.97-10.57-5.43-22.62-6.43-33.93-2.8-11.31 3.63-20.54 11.45-25.97 22.01-11.23 21.81-2.61 48.69 19.21 59.9z" fill="#742B93" /><path d="M416.05 527.15m-59.67 0a59.67 59.67 0 1 0 119.34 0 59.67 59.67 0 1 0-119.34 0Z" fill="#7E3499" /><path d="M389.96 596.07c-12.85 0-25.6-3.06-37.36-9.11-19.45-10-33.84-26.98-40.52-47.81-6.68-20.83-4.85-43.01 5.15-62.46 20.65-40.15 70.11-56.02 110.26-35.37 40.15 20.65 56.02 70.11 35.37 110.26-10 19.45-26.98 33.84-47.81 40.52a81.493 81.493 0 0 1-25.09 3.97z m0.17-126.4c-16.15 0-31.75 8.81-39.63 24.13-5.43 10.57-6.43 22.62-2.8 33.93 3.63 11.31 11.45 20.54 22.01 25.97 21.81 11.22 48.68 2.6 59.9-19.21 11.22-21.81 2.6-48.68-19.21-59.9a44.187 44.187 0 0 0-20.27-4.92z" fill="#742B93" /><path d="M490.82 585.83m-59.67 0a59.67 59.67 0 1 0 119.34 0 59.67 59.67 0 1 0-119.34 0Z" fill="#7E3499" /><path d="M490.73 667.75c-12.85 0-25.6-3.06-37.36-9.11-19.45-10-33.84-26.98-40.52-47.81-6.68-20.83-4.85-43.01 5.15-62.46 10-19.45 26.98-33.84 47.81-40.52 20.82-6.68 43-4.85 62.46 5.15 19.45 10 33.84 26.98 40.52 47.81 6.68 20.83 4.85 43.01-5.15 62.46-10 19.45-26.98 33.84-47.81 40.52a81.891 81.891 0 0 1-25.1 3.96z m0.14-126.43c-4.57 0-9.16 0.71-13.63 2.15-11.31 3.63-20.54 11.45-25.97 22.01-5.43 10.57-6.43 22.62-2.8 33.93 3.63 11.31 11.45 20.54 22.01 25.97 10.57 5.43 22.62 6.43 33.93 2.8 11.31-3.63 20.54-11.45 25.97-22.01 5.43-10.57 6.43-22.62 2.8-33.93-3.63-11.31-11.45-20.54-22.01-25.97-6.4-3.28-13.33-4.95-20.3-4.95z" fill="#742B93" /><path d="M400.55 651.84m-59.67 0a59.67 59.67 0 1 0 119.34 0 59.67 59.67 0 1 0-119.34 0Z" fill="#7E3499" /><path d="M376.41 721.71c-12.59 0-25.36-2.91-37.31-9.05-40.15-20.65-56.01-70.11-35.37-110.26 10-19.45 26.98-33.84 47.81-40.52 20.83-6.68 43-4.85 62.46 5.15 19.45 10 33.84 26.98 40.52 47.81 6.68 20.83 4.85 43.01-5.15 62.46-14.51 28.19-43.23 44.41-72.96 44.41z m-20.2-42.31c21.81 11.22 48.68 2.6 59.9-19.21 5.43-10.57 6.43-22.62 2.8-33.93-3.63-11.31-11.45-20.54-22.01-25.97-21.81-11.22-48.68-2.6-59.9 19.21-11.23 21.81-2.61 48.68 19.21 59.9z" fill="#742B93" /><path d="M353.8 749.76m-59.67 0a59.67 59.67 0 1 0 119.34 0 59.67 59.67 0 1 0-119.34 0Z" fill="#7E3499" /><path d="M329.67 826.63c-12.59 0-25.36-2.91-37.31-9.05-19.45-10-33.84-26.98-40.52-47.81-6.68-20.83-4.85-43.01 5.15-62.46 10-19.45 26.98-33.84 47.81-40.52 20.83-6.68 43.01-4.85 62.46 5.15 40.15 20.65 56.01 70.11 35.37 110.26-14.51 28.21-43.24 44.43-72.96 44.43z m-20.21-42.31c21.81 11.21 48.69 2.6 59.9-19.21 11.22-21.81 2.6-48.68-19.21-59.9-10.57-5.43-22.62-6.43-33.93-2.8s-20.54 11.45-25.97 22.01c-11.22 21.81-2.6 48.68 19.21 59.9z" fill="#742B93" /><path d="M588.84 203.47c30.48-1.45 61.92 16.24 72.64 27.36 28.63 29.68 52.32 21.37 70.3 30.28" fill="#7E3499" /><path d="M588.84 222.97c4.2-0.15 8.29 0.13 12.47 0.41 1.46 0.16 1.1 0.11-1.06-0.16 1.09 0.17 2.18 0.36 3.27 0.56 2.16 0.41 4.31 0.9 6.45 1.44 3.67 0.94 7.29 2.08 10.85 3.38 1.49 0.54 2.96 1.12 4.42 1.72-4.61-1.87 1.51 0.76 2.33 1.16 5.72 2.77 11.04 6.06 16.3 9.61 2.99 2.02-3.57-3.03 0.4 0.34 0.74 0.63 1.46 1.27 2.17 1.94 2.93 2.76 5.67 5.67 8.75 8.27 12.11 10.2 25.85 17.71 41.38 21.17 4.95 1.1 9.98 1.8 14.97 2.69 2.3 0.41 4.6 0.86 6.86 1.45 1.26 0.33 2.48 0.74 3.73 1.11 4.83 1.43-3.17-1.54-0.2-0.12 9.19 4.39 21.48 2.84 26.68-7 4.6-8.7 2.83-21.98-7-26.68-10.91-5.22-21.91-6.35-33.55-8.81-2.71-0.57-5.4-1.24-8.05-2.06-1.61-0.5-3.19-1.09-4.78-1.66-1.95-0.78-1.62-0.64 0.99 0.43-0.84-0.38-1.67-0.78-2.49-1.19-3.13-1.57-6-3.49-8.96-5.36-1.75-1.28-1.75-1.25-0.01 0.1-0.91-0.72-1.8-1.46-2.68-2.21a94.047 94.047 0 0 1-4.76-4.39c-22.77-22.34-56.45-36.31-88.5-35.15-10.18 0.37-19.98 8.71-19.5 19.5 0.48 10.26 8.6 19.91 19.52 19.51z" fill="#8ED656" /><path d="M664.66 237.41c-39.14 24.78-66.29 50.91-80.15 76.43" fill="#682296" /><path d="M654.81 220.57c-33.63 21.4-67.58 47.87-87.14 83.42-4.92 8.94-2.48 21.67 7 26.68 9.15 4.83 21.43 2.55 26.68-7 1.73-3.14 3.57-6.2 5.55-9.19 1.1-1.65 2.23-3.28 3.39-4.88 0.46-0.63 1.35-1.45 1.61-2.17-0.36 1.02-2.15 2.69-0.52 0.69 5.47-6.68 11.27-13.03 17.51-19 3.3-3.16 6.7-6.22 10.17-9.19 1.7-1.46 3.42-2.89 5.16-4.31 0.89-0.72 1.78-1.44 2.67-2.15-0.08 0.06 3.94-3.05 2.15-1.69-1.61 1.22 1.27-0.94 1.55-1.15 0.96-0.72 1.92-1.43 2.89-2.13 2.22-1.62 4.46-3.22 6.71-4.78 4.7-3.27 9.48-6.41 14.3-9.48 8.6-5.47 12.85-17.6 7-26.68-5.54-8.6-17.47-12.85-26.68-6.99z" fill="#8ED656" /><path d="M637.39 263.88c-0.02 0.92-0.22 1.87-0.2 2.78-0.12-6.13 0.48-3.44 0.1-1.32-0.46 2.61-1.02 5.21-1.55 7.81-1.45 7.06-2.68 14.12-3.58 21.28-1.74 13.91-1.24 29.84 7.18 41.7 5.89 8.3 17.29 13.05 26.68 7 8.24-5.31 13.31-17.78 7-26.68-0.56-0.79-1.56-3.38-2.29-3.82 1.24 0.74 1.49 4.3 0.37 0.38-0.2-0.7-0.28-2.91-0.79-3.45 0.38 3.2 0.45 3.72 0.22 1.57-0.07-0.83-0.13-1.66-0.16-2.49-0.11-2.57-0.04-5.14 0.13-7.7 0.03-0.43 0.32-5.21 0.5-5.22-0.17 0.01-0.76 4.97 0.04 0 1.69-10.53 5.09-21.15 5.35-31.86 0.24-10.2-9.14-19.96-19.5-19.5-10.78 0.51-19.24 8.59-19.5 19.52z" fill="#8ED656" /><path d="M591.5 449.97c-11.44 0-22.8-2.72-33.26-8.11-17.32-8.91-30.13-24.02-36.08-42.57-5.95-18.54-4.32-38.29 4.59-55.61 18.39-35.75 62.43-49.88 98.18-31.49 35.75 18.39 49.88 62.43 31.49 98.18-8.91 17.32-24.02 30.13-42.57 36.08a72.908 72.908 0 0 1-22.35 3.52z m0.14-108.44c-12.89 0-25.35 7.03-31.64 19.27-4.34 8.43-5.13 18.05-2.23 27.08 2.9 9.03 9.14 16.39 17.57 20.73s18.05 5.13 27.08 2.23c9.03-2.9 16.39-9.14 20.73-17.57 8.96-17.41 2.07-38.86-15.34-47.82a35.266 35.266 0 0 0-16.17-3.92z" fill="#742B93" /><path d="M591.58 377.03m-51.2 0a51.2 51.2 0 1 0 102.4 0 51.2 51.2 0 1 0-102.4 0Z" fill="#7E3499" /><path d="M520.82 428.11c-11.21 0-22.58-2.59-33.22-8.06-17.32-8.91-30.13-24.02-36.08-42.57-5.95-18.54-4.32-38.29 4.59-55.61s24.02-30.13 42.57-36.08c18.54-5.95 38.29-4.32 55.61 4.59 35.75 18.38 49.88 62.43 31.49 98.18-12.92 25.11-38.49 39.55-64.96 39.55z m0.16-108.42c-3.65 0-7.31 0.57-10.88 1.71-9.03 2.9-16.39 9.14-20.73 17.57-4.34 8.44-5.13 18.05-2.23 27.09 2.9 9.03 9.14 16.39 17.57 20.73 17.41 8.95 38.86 2.07 47.82-15.34 8.95-17.41 2.07-38.86-15.34-47.82-5.11-2.61-10.64-3.94-16.21-3.94z" fill="#742B93" /><path d="M750.9 390.19c-11.4-35.43-46.69-61.35-84.35-59.13-5.43 0.32-10.3 2.42-13.73 6.22-2.68-1.75-5.46-3.36-8.24-4.86-4.76-2.57-11.34-3.07-16.8-1.12-2.04-7.91-9.99-14.47-18.19-14.1-10.54 0.47-18.18 8.22-18.7 18.7a126.7 126.7 0 0 1-0.49 6.46c-0.15 1.36-0.14 1.23 0.03-0.39-0.2 1.22-0.43 2.43-0.68 3.64-0.76 3.62-1.74 7.2-2.94 10.7-0.02 0.05-1.21 3.18-1.22 3.34-0.6 1.34-1.24 2.66-1.91 3.96-1.67 3.31-3.52 6.52-5.14 9.85-3.96 8.12-7.36 16.88-7.01 26.09 0.48 12.37 9.04 22.6 21.27 24.86 18.31 3.38 34.85-7.28 44.32-22.39 0.01 0.78 0.01 1.56 0.03 2.34 0.51 21.56 0.71 45.86 13.08 64.46 7.89 11.87 24.47 12.22 32.29 0 12.8-20.01 26.59-42.68 25.77-67.28-0.19-5.74-1.01-11.31-2.33-16.73 0.46 0.53 1.12 1.28 1.61 1.83 0.51 0.75 2.05 2.85 2.25 3.16 0.8 1.25 1.56 2.53 2.27 3.83 0.57 1.05 1.1 2.13 1.61 3.21-1.29-2.63 0.86 2.44 1.13 3.28 2.99 9.3 13.11 16.26 23 13.06 9.32-3 16.28-13.02 13.07-22.99z m-142.35 9.57c-0.18-0.14 0.03-1.04 0.3-1.97 0.08 0.66-0.02 1.32-0.3 1.97z" fill="#AFED5F" /><path d="M613.6 383.17c-0.95 1.36-1.91 2.7-2.9 4.02 1.64-2.2 0.51-0.68-0.56 0.59a90.538 90.538 0 0 1-6.18 6.66c-0.98 0.96-2 1.88-3.03 2.79-1.29 1.12-2.74 2.15-0.53 0.56-2.45 1.76-4.96 3.41-7.63 4.83-0.75 0.4-4.29 2.01-0.58 0.48-1.28 0.53-2.59 0.97-3.91 1.38-1.32 0.41-2.65 0.77-4.01 1.07-1.35 0.3-5.38 0.16-1.35 0.3-2.75-0.09-5.43 0.18-8.2-0.09 4.66 0.46-0.42-0.31-1.23-0.54-1.58-0.44-3.11-1.03-4.63-1.65-9.47-3.86-21.84 4.19-23.99 13.62-2.58 11.32 3.48 19.85 13.62 23.99 16.98 6.92 36.47 3.79 52.49-4.13 15.16-7.5 26.74-20.56 36.28-34.19 5.86-8.38 1.8-22.03-7-26.68-9.96-5.28-20.4-1.95-26.66 6.99z" fill="#8ED656" /><path d="M572.52 325.08c-13.24 13.89-25.22 31.67-31.52 49.93-6.29 18.22-2.83 39.87 5.91 56.63 4.73 9.06 18.12 12.51 26.68 7 9.22-5.95 12.05-16.99 7-26.68-0.46-0.85-0.89-1.71-1.3-2.59 0.98 2.41 1.08 2.59 0.29 0.55-0.43-1.45-0.95-2.86-1.34-4.32-0.39-1.48-0.65-2.98-1-4.47-0.36-2.22-0.35-2.01 0.04 0.64-0.11-1.01-0.19-2.02-0.24-3.04-0.13-2.38-0.89-6.79 0.21-8.95-0.41 2.78-0.43 3.09-0.06 0.92 0.18-0.91 0.39-1.82 0.63-2.72 0.21-0.78 0.64-3.55 1.24-3.84-1.09 2.52-1.28 3.03-0.56 1.52a218.454 218.454 0 0 1 3.86-7.54c1.72-3.21 3.53-6.37 5.45-9.47 2.06-3.32 4.27-6.54 6.6-9.67-2.54 3.41 0.85-0.95 1.14-1.3 1.46-1.72 2.99-3.38 4.55-5.01 7.04-7.39 7.89-20.34 0-27.58-7.64-7.01-20.06-7.9-27.58-0.01zM690.85 364.01c-9.95 1.2-18.05 5.22-23.27 14.07-4.77 8.08-4.74 17.69-2.52 26.55 1.43 5.69 3.42 11.18 4.62 16.94 0.27 1.28 0.52 2.56 0.74 3.85 0.1 0.59 0.71 4.97 0.35 2-0.36-2.96 0.12 1.38 0.17 1.97 0.13 1.5 0.23 3.01 0.29 4.52 0.1 2.48 0.11 4.96 0.01 7.43-0.05 1.22-0.13 2.44-0.23 3.66-0.29 3.44-0.87 1.12 0.11-0.13-1.09 1.39-1.11 5.95-1.59 7.76-0.61 2.32-1.48 4.54-2.16 6.83-0.68 2.28 1.64-3.33 0.03-0.01-0.63 1.31-1.26 2.61-1.95 3.88-1.17 2.16-2.52 4.18-3.85 6.25-2.63 4.1 2.63-2.91-0.59 0.84-0.67 0.78-1.32 1.56-2.01 2.32-2.13 2.36-4.43 4.54-6.81 6.64-7.68 6.76-7.42 20.76 0 27.58 8.19 7.52 19.38 7.21 27.58 0 17.68-15.55 27.5-36.6 30.02-59.79 1.17-10.74 0.09-21.53-1.77-32.14-0.92-5.24-2.21-10.41-3.76-15.5-0.36-1.18-0.76-2.34-1.1-3.52-0.28-0.88-0.52-1.77-0.72-2.67-0.25-1.16-0.28-1.19-0.09-0.1-0.36 0.85-0.85 4.36 0.04 1.62-1.72 5.27-4.81 7.31-11.55 8.12 10.09-1.21 20.01-8.1 19.5-19.5-0.42-9.49-8.65-20.77-19.49-19.47z" fill="#8ED656" /><path d="M612.46 382.81c-10.2 22.49-10.76 47.76-1.24 70.67 8.72 20.99 23.15 38.5 40.7 52.78 7.9 6.43 19.95 8.3 27.58 0 6.54-7.13 8.45-20.7 0-27.58-6.8-5.53-13.25-11.49-19-18.12-0.53-0.61-4.81-6.06-2.1-2.42-1.3-1.75-2.57-3.52-3.76-5.34-2.41-3.66-4.38-7.49-6.42-11.36-0.91-2.02-0.92-1.98-0.03 0.12-0.42-1.05-0.82-2.1-1.2-3.16-0.76-2.13-1.42-4.29-1.99-6.48-0.57-2.2-0.99-4.41-1.42-6.63 0.9 4.66-0.18-2.26-0.23-3.22-0.11-2.24-0.12-4.49-0.02-6.74 0.05-1.12 0.13-2.24 0.24-3.35-0.37 2.41-0.37 2.48-0.01 0.21 0.48-2.19 0.91-4.36 1.55-6.51 0.25-0.83 2.86-7.22 1.03-3.18 4.2-9.27 2.97-21.42-7-26.68-8.54-4.52-22.19-2.93-26.68 6.99zM742.81 393.71c-4.91 2.45 3.52-0.97-1.68 0.81-1.64 0.56-3.28 1.09-4.96 1.52-1.4 0.36-2.82 0.59-4.24 0.89-2.16 0.45 2.86 0.07-0.84-0.02-1.73-0.04-3.46 0.11-5.19 0.03-0.87-0.03-1.73-0.09-2.59-0.18-1.58-0.15-1.15-0.1 1.29 0.17-0.49 0.35-2.69-0.81-3.21-0.89-1.37-0.49-0.85-0.26 1.57 0.68-0.61-0.3-1.21-0.62-1.79-0.97-0.79-0.45-2.35-1.08-2.87-1.87 1.91 1.51 2.32 1.8 1.23 0.86-0.53-0.46-1.05-0.94-1.55-1.44-0.81-0.79-2.62-2.12-2.91-3.15 0.52 1.89 1.57 2.2 0.01-0.09-1.49-2.2-2.74-4.51-3.95-6.87-2.11-4.14 1.11 3.82-0.19-0.55-0.39-1.31-0.83-2.59-1.18-3.91-2.67-9.84-13.99-16.85-23.99-13.62-10.09 3.26-16.48 13.44-13.62 23.99 4.43 16.34 15.17 33 30.52 40.98 18.79 9.77 41.5 6.45 59.82-2.69 9.15-4.56 12.44-18.23 7-26.68-6.03-9.36-16.89-11.88-26.68-7z" fill="#8ED656" /><path d="M770.55 404.44c-4.64-29.24-11.67-61.02-35.94-80.65-13.21-10.69-28.13-15.74-45.05-16.62-14.91-0.77-30.03 1.86-44.59 4.78-10.02 2.01-16.7 14.46-13.62 23.99 3.44 10.64 13.25 15.77 23.99 13.62 3.05-0.61 6.09-1.2 9.16-1.72 1.33-0.23 2.65-0.44 3.98-0.65 2-0.31 3.25-0.39 0.5-0.09 6.04-0.65 12.06-1.17 18.14-1.02 1.63 0.04 3.24 0.17 4.86 0.25 5.21 0.28-3.92-0.9 1.13 0.09 2.53 0.5 5.04 1.03 7.5 1.82 0.96 0.31 1.91 0.65 2.85 1.02-0.64-0.26-1.27-0.51-1.91-0.77 0.27-0.18 3.67 1.95 3.94 2.11 1.06 0.63 2.05 1.39 3.11 2.03 1.15 0.82 0.82 0.55-0.98-0.81 0.58 0.47 1.15 0.95 1.7 1.45 2.07 1.83 3.91 3.83 5.77 5.86 2.46 2.69-1.08-1.74 0.22 0.19 0.84 1.25 1.74 2.47 2.56 3.74 1.49 2.34 2.85 4.75 4.09 7.23 0.42 0.85 2.27 5.02 0.63 1.09a99.61 99.61 0 0 1 1.6 4.17c4.55 12.66 6.67 26.01 8.77 39.25 1.6 10.11 14.74 16.61 23.99 13.62 10.95-3.54 15.32-13.15 13.6-23.98z" fill="#8ED656" /><path d="M657.32 317.56c-30.54-24.95-71.74-30.36-109.15-19.44-9.78 2.86-16.9 13.86-13.62 23.99 3.21 9.93 13.5 16.68 23.99 13.62 3.68-1.07 7.39-2 11.16-2.72 1.76-0.34 3.55-0.72 5.33-0.89-5.37 0.53 1.53-0.06 2.51-0.14 7.06-0.52 14.62-0.72 21.63 0.52-5.13-0.91 0.6 0.19 1.65 0.4 1.75 0.34 3.5 0.73 5.23 1.17 3.46 0.88 6.79 2.04 10.16 3.22 2.04 0.81 1.88 0.74-0.46-0.22 0.92 0.41 1.83 0.84 2.74 1.29 1.36 0.67 2.69 1.37 4.01 2.12 1.75 0.99 3.47 2.05 5.14 3.18 0.84 0.56 1.66 1.14 2.48 1.74-1.93-1.53-2.05-1.61-0.36-0.24 7.89 6.44 19.97 8.29 27.58 0 6.53-7.17 8.41-20.71-0.02-27.6z" fill="#8ED656" /><path d="M591.69 319.65c-4.28-0.84-8.3-2.27-12.5-3.35-2.38-0.61 3.2 1.69 1.23 0.53-0.65-0.38-1.38-0.67-2.05-1.03-1.29-0.7-2.71-2.06-4.05-2.54 0.52 0.18 3.41 2.99 1.6 1.19-0.46-0.46-0.98-0.87-1.45-1.31-0.94-0.89-1.83-1.84-2.7-2.8-2.06-2.29-3.93-4.74-5.83-7.16-6.32-8.07-21.04-7.12-27.58 0-7.86 8.56-6.74 18.97 0 27.58 4.88 6.23 9.77 11.55 16.27 16.19 7.77 5.53 17.42 8.5 26.69 10.32 9.98 1.96 21.53-2.83 23.99-13.62 2.2-9.67-2.91-21.89-13.62-24z" fill="#8ED656" /></svg>