<?xml version="1.0" standalone="no"?><!DOCTYPE svg PUBLIC "-//W3C//DTD SVG 1.1//EN" "http://www.w3.org/Graphics/SVG/1.1/DTD/svg11.dtd"><svg class="icon" width="200px" height="200.00px" viewBox="0 0 1024 1024" version="1.1" xmlns="http://www.w3.org/2000/svg"><path d="M596.91 310.68c-21.48 0-45.61-6.88-73.12-20.64-8.12-4.06-11.74-13.71-8.28-22.11 0.89-2.16 22.46-52.87 82.94-52.87 19.18 0 30.22-4.22 36.11-7.76 4.71-2.83 6.77-5.58 7.4-6.54 1.77-5.67 6.11-9.26 11.91-10.77 5.95-1.54 11.98 1.02 16.32 5.36 8.81 8.81 13.38 21.83 12.89 36.67-0.69 20.77-10.7 42.05-26.12 55.54-17.61 15.43-37.35 23.12-60.05 23.12z m-39.68-43.57c42.29 16.74 62.61 6.88 76.89-5.62 5.88-5.14 10.59-13.23 12.86-21.48-11.28 5.53-26.95 9.73-48.53 9.73-20.19 0-33.35 9.01-41.22 17.37z m84.6-65.92z" fill="#B3E259" /><path d="M513.63 382.71h-16.79c-3.92 0-7.61-1.83-9.98-4.94a12.552 12.552 0 0 1-2.13-10.93c0.27-0.99 26.52-100.38-29.42-125.45a12.569 12.569 0 0 1-6.79-7.51c-1.11-3.34-0.76-7 0.95-10.08 0.67-1.2 4.42-7.38 12.4-11.09 6.9-3.21 18.41-5.26 34.04 3.21 35.85 19.43 45.13 67.64 30.1 156.33a12.558 12.558 0 0 1-12.38 10.46z" fill="#B3E259" /><path d="M520.89 346.27c59.07 30.43 118.83-54.12 230.89 1.79 98.45 57.44 64.44 272.06-17.9 365.13s-128.87 85.91-189.73 68.02c-35.8-10.74-81.57 42.67-157.51-25.06-94.94-84.67-111.69-235.4-96.65-318.6 21.21-117.31 152.15-130.66 230.9-91.28z" fill="#C3EA59" /><path d="M556.24 810.21c-21.44 0-42.54-5.1-65.09-11.73-6.87-2.06-17.12 0.57-28.99 3.61-30.62 7.85-76.88 19.71-135.42-32.5-45.23-40.33-78.11-98.79-95.08-169.06-13.37-55.35-16.1-117.47-7.3-166.17 8.88-49.12 35.95-86.29 78.28-107.49 26.36-13.2 57.79-19.55 90.86-18.39 30.62 1.08 61.69 8.78 87.51 21.69l0.19 0.1c17.61 9.07 35.55 4.28 65.72-4.98 20.53-6.3 43.81-13.44 70.96-14.66 31.64-1.42 62.39 5.55 94.01 21.33l1.04 0.56c34.73 20.27 57.45 58.13 65.7 109.51 7.2 44.82 3 98.55-11.81 151.3-14.76 52.56-38.69 99.37-67.38 131.8-58.03 65.59-101.28 85.07-143.2 85.08z m-70.7-48.48c5.26 0 10.55 0.64 15.87 2.23 51.21 15.06 91.74 26.98 171.07-62.7 25.16-28.45 46.36-70.24 59.68-117.68 13.43-47.83 17.31-96.08 10.92-135.86-4.5-28.01-16.45-65.22-47.8-83.83-57.93-28.7-98.52-16.24-137.79-4.19-30.09 9.23-61.2 18.78-92.67 2.62-21.28-10.62-47.06-16.97-72.59-17.87-27.08-0.95-52.49 4.09-73.48 14.6-32.25 16.15-52.09 43.64-58.97 81.7-7.96 44.02-5.39 100.59 6.87 151.32 10.63 44.01 33.85 105.87 84.05 150.65 44.22 39.44 73.86 31.84 102.52 24.5 10.57-2.72 21.38-5.49 32.32-5.49z" fill="#AAD64C" /></svg>