<?xml version="1.0" standalone="no"?><!DOCTYPE svg PUBLIC "-//W3C//DTD SVG 1.1//EN" "http://www.w3.org/Graphics/SVG/1.1/DTD/svg11.dtd"><svg class="icon" width="200px" height="200.00px" viewBox="0 0 1024 1024" version="1.1" xmlns="http://www.w3.org/2000/svg"><path d="M706.26 358.36s-61.34-19.37-54.88 22.6 24.47 49.61-27.38 84.17c-32.15 21.44-74.73 60.86-155.53 86.41-93.84 29.67-183.99-10.3-206.59-10.3-4.42 0-14.56 4.12-18.07 10.3-3.91 6.89 0.49 34.92 2.93 42.46 6.35 19.62 45.17 74.97 118.04 95.79 120.97 34.56 367.31-79.61 370.54-176.47s-29.06-154.96-29.06-154.96z" fill="#FEDA02" /><path d="M398.72 690.52c-20.49 0-39.17-2.3-55.4-6.94-43.27-12.36-73.65-35.48-91.51-52.69-22.48-21.66-34.9-43.09-38.71-54.87-1.74-5.38-3.64-15.73-4.62-25.15-2.02-19.48 0.46-26.97 3.17-31.73 7.52-13.24 24.57-19.41 33.72-19.41 7.78 0 17.57 2.45 32.38 6.17 38.48 9.65 102.9 25.8 168.79 4.97 61.93-19.58 99.51-47.05 129.71-69.12 7.48-5.47 14.55-10.63 21.26-15.11 15.76-10.51 24.88-18.58 27.09-23.98 1.32-3.23 0.41-7.6-2.34-18.35-1.64-6.45-3.69-14.47-5.18-24.12-3.08-20.02 4.73-31.47 11.82-37.55 21-18 58.89-7.28 66.27-4.95l6.83 2.16 3.48 6.26c1.42 2.55 34.67 63.63 31.31 164.31-1.2 35.94-27.84 73.88-77.06 109.73-42.77 31.16-99.93 58.28-156.82 74.41-37.4 10.59-72.9 15.96-104.19 15.96zM243.71 536.83c-0.25 7.18 1.99 23.04 3.63 28.11 4.91 15.19 40.51 65.35 105.86 84.03 34.67 9.91 84.35 6.69 139.89-9.05 52.96-15.02 105.98-40.12 145.44-68.87 38.78-28.25 61.48-58.08 62.27-81.84 2.4-72.09-16.05-121.77-23.65-139a93.49 93.49 0 0 0-8.84-1.44c-9.73-1.07-14.5 0.3-15.78 1.04-0.15 0.63-0.3 2.21 0.11 4.89 1.22 7.92 2.95 14.71 4.48 20.69 3.46 13.54 6.72 26.34 0.78 40.87-5.33 13.04-17.05 24.72-40.44 40.32-6.07 4.04-12.83 8.99-19.99 14.22-30.62 22.37-72.55 53.02-140.1 74.37-27.27 8.62-54.26 11.74-79.46 11.74-44.67 0-83.74-9.8-108.94-16.12-8.87-2.22-18.84-4.72-22.85-5.05-0.7 0.24-1.63 0.66-2.41 1.09z m-1.37 0.94z" fill="#FFC801" /><path d="M719.69 334.58s-32.28 16.14-19.37 67.8 16.14 71.03-29.06 96.85c-19.37 16.14-48.43 77.48-116.22 109.77s-119.45 35.51-135.6 41.97-77.48 54.88-83.94 61.34c-6.46 6.46-6.46 41.97 19.37 54.88 25.83 12.91 148.16 71.12 274.42 9.69 126.04-61.33 167.53-128.66 187.25-177.56 27-66.95 9.69-106.54-19.37-135.6-29.06-29.06-35.51-48.43-29.06-96.85 0-12.92-6.45-22.6-48.42-32.29z" fill="#FEDA02" /><path d="M491.42 806.06c-71.78 0-131.66-24.55-161.11-39.28-17.01-8.5-28.67-25.16-32-45.71-0.98-6.07-3.32-26.73 7.96-38.01 7.03-7.03 70.6-57.57 89.98-65.32 6.19-2.48 14.41-4.18 25.79-6.55 24.98-5.19 62.72-13.04 108.75-34.96 44.29-21.09 70.57-55.68 89.75-80.94 8.67-11.42 15.53-20.44 22.68-26.4l1.22-1.01 1.38-0.79c33.48-19.13 33.16-26.33 20.52-76.86-6.85-27.4-5.03-47.12 5.55-60.27 10.27-12.76 24-13.02 26.63-12.95l1.79 0.05 1.74 0.4c15.44 3.56 26.4 4.66 34.4 5.46 7.92 0.79 13.64 1.37 19.08 3.92 5.26 2.46 14.08 8.8 14.08 23.51v1.19l-0.16 1.18c-5.95 44.66-0.25 57.56 23.94 81.75 19.13 19.13 30.78 39.62 35.6 62.62 5.75 27.47 1.74 57.71-12.26 92.43-13.72 34.02-31.92 62.52-57.3 89.68-33.87 36.27-80.56 69.02-138.77 97.34-44.63 21.73-88.83 29.52-129.24 29.52z m-157.85-99.23c-0.87 5.79 0.71 21.69 12.83 27.76 41.26 20.63 149.03 62.86 258.49 9.6 123.38-60.04 160.92-124.7 178.43-168.11 11.25-27.9 14.66-51.32 10.41-71.59-3.38-16.16-11.59-30.32-25.82-44.55-31.26-31.26-40.08-55.18-35.44-101.23-7.56-0.76-18.49-1.88-33.18-4.98-1.13 3.09-2.12 11.5 1.95 27.78 7.29 29.15 11.42 48.17 7.37 66.38-5.4 24.3-24.72 38.72-43.35 49.54-4.02 3.78-9.9 11.51-16.08 19.65-20.21 26.61-50.75 66.81-102.94 91.67-49.94 23.78-91.86 32.5-116.9 37.7-8.49 1.76-16.5 3.43-19.75 4.73-11.31 4.52-63.37 44.53-76.02 55.65z" fill="#FFC801" /><path d="M239 530m-32 0a32 32 0 1 0 64 0 32 32 0 1 0-64 0Z" fill="#998239" /><path d="M331 721m-32 0a32 32 0 1 0 64 0 32 32 0 1 0-64 0Z" fill="#998239" /><path d="M618.57 358.75c50.75 5.72 102.17 6.93 153.19 8.52 12.96 0.4 25.36-11.68 24.77-24.77-0.62-13.77-10.88-24.34-24.77-24.77-51.02-1.58-102.43-2.8-153.19-8.52-5.89-0.66-13.5 3.24-17.52 7.26-4.3 4.3-7.53 11.35-7.26 17.52 0.29 6.41 2.39 13.05 7.26 17.52 5.15 4.7 10.63 6.46 17.52 7.24z" fill="#77AF2F" /></svg>