<?xml version="1.0" standalone="no"?><!DOCTYPE svg PUBLIC "-//W3C//DTD SVG 1.1//EN" "http://www.w3.org/Graphics/SVG/1.1/DTD/svg11.dtd"><svg class="icon" width="200px" height="200.00px" viewBox="0 0 1024 1024" version="1.1" xmlns="http://www.w3.org/2000/svg"><path d="M565.71 254.48C717.64 289.79 775.36 413.16 776 521.51c0.73 124.04-105.34 322-311.24 296.66-166-20.43-269.36-184.4-221.79-352.53 33.81-119.5 152.51-250.73 322.74-211.16z" fill="#63AA29" /><path d="M465.33 839.46c-12.27 0-24.73-0.77-37.36-2.33-41.97-5.17-80.98-18.93-115.95-40.9-33.65-21.14-61.99-48.85-84.25-82.36-48.14-72.47-61.52-164.34-36.7-252.03 19.4-68.55 61.86-132.18 116.5-174.56 46.23-35.86 123.24-73.51 227.63-49.24 38.49 8.95 73.12 23.76 102.91 44.04 27.47 18.69 50.93 42.05 69.73 69.44 32.89 47.91 51.2 108.63 51.57 170.99 0.43 72.83-34.47 177.76-113.41 247.98-51.12 45.48-112.99 68.97-180.67 68.97z m5.07-573.05c-62.22 0-109.59 25.13-140.78 49.32-48.7 37.77-86.58 94.6-103.93 155.92-21.95 77.57-10.27 158.6 32.05 222.31 19.42 29.23 44.12 53.39 73.42 71.8 30.46 19.14 64.51 31.14 101.2 35.65 37.83 4.66 73.87 1.44 107.09-9.55 29.97-9.92 57.76-26.15 82.61-48.27 31.53-28.05 57.85-65.23 76.11-107.51 16.47-38.13 25.43-78.39 25.22-113.37-0.32-55.23-16.39-108.8-45.25-150.83-34.5-50.26-85.35-83.49-151.12-98.78-20.03-4.66-38.93-6.69-56.62-6.69z" fill="#01823C" /><path d="M606.21 302.69a18 18 0 0 1-6.92-1.39c-9.17-3.83-13.5-14.35-9.68-23.52 0.35-0.83 8.52-20.29 22.19-39.43-2.6-9.85-2.66-20.42 0.12-31.06 3.83-14.67 12.99-27.76 25.77-36.86 13.56-9.66 30.57-14.52 49.21-14.08 9.94 0.24 17.8 8.49 17.57 18.42-0.23 9.79-8.25 17.57-17.99 17.57h-0.44c-12.39-0.31-21.62 3.02-28.06 7.86 7.6-2.42 15.77-3.26 24.47-1.8 18.59 3.11 32.26 15.03 36.57 31.88 4.42 17.28-2.06 36.32-16.12 47.4-7.29 5.74-27.43 17.4-56.96 1.74-4.58-2.43-8.77-5.21-12.54-8.28-4.56 7.6-8.24 14.95-10.57 20.52-2.89 6.87-9.58 11.03-16.62 11.03z m49.35-59.98c2.1 1.8 4.51 3.44 7.24 4.88 4.48 2.38 12.76 5.77 17.83 1.78 2.91-2.29 4.42-6.67 3.52-10.18-0.29-1.15-1.08-4.2-7.63-5.3-6.77-1.13-14.01 2.6-20.96 8.82z" fill="#01823C" /><path d="M622.01 311.74c-6.25 20.39-7.96 41.92-7.13 63.15 0.79 20.29 3.45 40.47 3.87 60.78 0.22 10.61-0.48 21.03-1.45 31.59-0.3 3.24 0.39-2.47-0.08 0.74-0.19 1.28-0.37 2.55-0.57 3.82-0.4 2.55-0.84 5.09-1.3 7.62-1.05 5.71-2.25 11.39-3.55 17.05-4.96 21.59-11.03 42.94-16.73 64.34-5.74 21.56-11.39 43.14-17.25 64.66-2.69 9.88-5.51 19.72-8.77 29.42-1.53 4.55-3.16 9.07-4.91 13.54-0.44 1.12-0.9 2.22-1.34 3.34 1.14-2.88 0.02-0.03-0.2 0.47-1.21 2.74-2.46 5.47-3.78 8.16-8.12 16.58-16.85 33.39-27.02 48.81-1.18 1.79-2.39 3.56-3.64 5.3-0.62 0.87-1.27 1.72-1.89 2.59 2.07-2.89 0.49-0.61 0.01-0.03-3.05 3.69-6.2 7.27-9.67 10.57-2.84 2.7-5.86 5.2-8.92 7.64-0.71 0.57-1.42 1.17-2.16 1.7 3.39-2.45 1.2-0.92 0.47-0.38-1.94 1.43-3.87 2.88-5.83 4.27-7.89 5.62-16.08 10.84-24.54 15.57-4.58 2.56-9.24 4.98-13.98 7.22-0.95 0.45-1.9 0.89-2.85 1.32-0.45 0.2-4.42 1.99-2.05 0.94 2.22-0.99-0.81 0.33-1.35 0.55-1.2 0.48-2.4 0.95-3.61 1.41-4.75 1.79-9.58 3.38-14.49 4.69-2.15 0.57-4.31 1.09-6.49 1.55-1.19 0.25-2.38 0.49-3.58 0.7-0.59 0.11-4.71 0.76-1.76 0.32 2.71-0.4-0.35 0.02-1.03 0.09-1.17 0.12-2.33 0.21-3.5 0.28-2.3 0.14-4.6 0.18-6.9 0.13-2.15-0.05-4.6-0.68-6.73-0.48 0.56-0.05 4.35 0.82 1.07 0.08-1.28-0.29-2.58-0.53-3.86-0.84-9.57-2.3-20.88 3.02-23.19 13.16-2.21 9.69 2.91 20.72 13.17 23.19 37.92 9.11 77.74-7.7 109.56-27.3 15.42-9.5 31.32-20.37 43.67-33.7 13.58-14.67 23.5-32.08 32.78-49.65 10.21-19.32 19.57-38.62 26.29-59.48 6.79-21.08 12.06-42.66 17.76-64.05 5.91-22.19 11.88-44.37 17.73-66.59 6.09-23.14 11.5-46.5 13.5-70.4 1.98-23.66-0.73-47.24-2.41-70.83-0.82-11.58-1.35-23.2-0.76-34.81 0.15-2.93 0.36-5.85 0.66-8.76 0.12-1.17 0.25-2.35 0.4-3.52-0.35 2.79 0 0.2 0.23-1.17 1.06-6.36 2.58-12.62 4.47-18.78 2.89-9.43-3.43-20.97-13.16-23.19-10.22-2.28-20.11 3.11-23.21 13.2zM581.43 268.6c-52.27 56.43-91.98 123.41-116.6 196.26-6.59 19.51-12.27 39.31-18.92 58.8-3.09 9.06-6.41 18.03-10.04 26.88l-1.29 3.12c1.31-3.18 0.19-0.45-0.07 0.16-0.89 2.07-1.79 4.14-2.7 6.2-1.94 4.38-3.94 8.74-5.98 13.08-15.64 33.27-33.81 65.26-50.31 98.1-18.89 37.61-35.9 76.75-43.88 118.27-1.86 9.65 2.7 20.8 13.17 23.19 9.31 2.12 21.2-2.81 23.19-13.17 3.38-17.56 8.33-34.76 14.46-51.56 1.53-4.19 3.13-8.36 4.79-12.5 0.83-2.07 1.68-4.14 2.54-6.2-0.29 0.69-1.39 3.23 0.06-0.13 0.55-1.28 1.11-2.57 1.67-3.85 3.6-8.22 7.4-16.36 11.32-24.43 15.95-32.79 34-64.5 50.05-97.24 8.4-17.14 16.23-34.6 23.08-52.42 7.22-18.8 13-38.1 19.06-57.29 5.78-18.3 11.99-36.43 19.42-54.14-1.31 3.12-0.15 0.38 0.1-0.21 0.46-1.04 0.9-2.09 1.36-3.13 0.92-2.08 1.84-4.16 2.79-6.24a515.194 515.194 0 0 1 18.83-37.35 523.554 523.554 0 0 1 32.94-51.86c3-4.16 6.07-8.26 9.17-12.33 1.79-2.35-1.66 2.07 0.19-0.23 0.89-1.11 1.76-2.24 2.65-3.35 1.6-2 3.21-3.99 4.83-5.97 6.68-8.14 13.62-16.06 20.78-23.79 6.7-7.24 7.7-19.59 0-26.66-7.29-6.7-19.51-7.73-26.66-0.01zM511.09 243.29c-36.79 16.91-70.35 40.56-100.52 67.45-31.25 27.85-58.89 59.96-82.1 94.79-19.76 29.65-35.82 61.58-46.46 95.62-11.39 36.46-17.93 74.57-20.9 112.61-3.69 47.31-0.95 95.77 11.21 141.76 2.52 9.53 13.57 16.28 23.19 13.16 9.8-3.17 15.87-12.97 13.17-23.19a340.27 340.27 0 0 1-7.53-36.35c-0.21-1.4-0.4-2.8-0.61-4.2-0.44-2.97 0.33 2.95 0-0.04-0.59-5.36-1.24-10.7-1.69-16.07-1.7-19.98-1.94-40.07-0.98-60.1a508.99 508.99 0 0 1 3.04-36.22c0.11-0.89 1.1-8.45 0.46-3.8 0.65-4.73 1.36-9.45 2.14-14.16 2.87-17.39 6.62-34.65 11.37-51.63 2.1-7.49 4.39-14.92 6.93-22.27 1.21-3.5 2.48-6.99 3.81-10.45 0.57-1.47 1.14-2.94 1.73-4.41 0.29-0.72 0.59-1.43 0.87-2.15 1.46-3.64-1.59 3.6-0.14 0.33 7.32-16.51 15.89-32.45 25.43-47.78a441.9 441.9 0 0 1 15.9-23.81c6.93-9.7 8.8-12.12 15.72-20.58a481.615 481.615 0 0 1 41.01-44.21 455.896 455.896 0 0 1 34.05-29.35c-2.58 2.01 0.55-0.4 1.42-1.07 4.36-3.29 8.79-6.5 13.28-9.61 17.47-12.12 35.89-22.84 55.21-31.72 8.99-4.13 11.91-17.81 6.76-25.79-5.96-9.27-16.16-11.18-25.77-6.76z" fill="#01823C" /></svg>