<?xml version="1.0" standalone="no"?><!DOCTYPE svg PUBLIC "-//W3C//DTD SVG 1.1//EN" "http://www.w3.org/Graphics/SVG/1.1/DTD/svg11.dtd"><svg class="icon" width="200px" height="200.00px" viewBox="0 0 1024 1024" version="1.1" xmlns="http://www.w3.org/2000/svg"><path d="M440.41 450.84c29.36-56.73 103.57-180.46 161.33-198.13 60.76-18.59 111.69 35.23 17.21 277.25-103.72 265.68-156.11 217.96-237.1 171.56-45.82-26.24 9.9-156.69 58.56-250.68z" fill="#FFE650" /><path d="M459.95 748.44c-32.31 0-63.06-17.62-95.2-36.04-4.42-2.54-8.92-5.11-13.49-7.68-22.46-12.64-28.4-36.72-29.43-54.69-1.12-19.66 2.45-43.47 10.92-72.8 8.76-30.31 27.9-83.05 69.33-162.14 8.12-15.5 37.64-70.06 76.71-121.63 40.68-53.69 77.59-85.22 109.7-93.73 32.12-8.51 60.08-1.73 78.72 19.08 19.29 21.53 27.12 56.55 23.27 104.09-4.14 51.15-21.83 117.43-52.57 197.02-27.1 70.17-52.03 121.81-76.21 157.88-23.56 35.14-47.33 56.6-72.66 65.59-9.88 3.52-19.55 5.05-29.09 5.05z m-41.92-324.98l15.95 8.35c-83.06 158.57-86.96 229.22-65.06 241.54 4.65 2.62 9.23 5.24 13.73 7.82 37.21 21.32 66.59 38.15 94.36 28.3 17.78-6.31 35.71-23.22 54.8-51.7 22.67-33.82 46.4-83.15 72.53-150.8 74.14-191.96 49.92-248.65 36.06-264.12-9.42-10.51-23.78-13.31-42.69-8.3-23.48 6.22-55.52 34.87-90.22 80.67-37.39 49.35-65.72 101.72-73.51 116.59l-15.95-8.35z" fill="#FFD31A" /><path d="M492.25 447.66c-0.19 2.45-2.03 0.99 0.57 1.86 0.55 0.18 1.09 0.5 1.61 0.71 2.2 0.88-1.77 2.66 0.86-2.29-4.25 8 7.9 15.12 12.16 7.11 4.58-8.62-2.78-16.64-10.88-19.1-8.75-2.66-17.67 2.38-18.4 11.72-0.3 3.8 3.45 7.04 7.04 7.04 4.06-0.01 6.75-3.24 7.04-7.05zM588.37 475.11c0.44-0.93 0.63-1.26 1.09-1.53 0.66-0.38 0.93-0.33 1.14-0.26 0.79 0.3 1.08 1.41 1.02 1.74-0.78 3.72 1.09 7.61 4.92 8.66 3.49 0.96 7.88-1.18 8.66-4.92 1.62-7.76-2.18-16.21-10.04-18.79-7.17-2.35-15.7 1.06-18.94 7.98-1.61 3.44-0.96 7.59 2.53 9.63 3.04 1.8 8 0.95 9.62-2.51zM543.99 439.59c0.02-0.05 1.1-1.8 0.68-1.4 0.46-0.43 0.77-0.6 1.34-0.4-0.69-0.25 0.12 0.15 0.31 0.49-0.04-0.07 0.26 1.19 0.2 0.45 0.26 3.79 3.05 7.04 7.04 7.04 3.61 0 7.3-3.23 7.04-7.04-0.47-6.86-4.87-13.17-11.87-14.67-6.65-1.42-14.16 2.1-16.9 8.43-1.51 3.49-1.03 7.55 2.53 9.63 2.97 1.73 8.11 0.98 9.63-2.53zM593.51 399.16c0.4-0.79 0.47-1.03 1.09-1.37 0.66-0.36 0.86-0.26 1.01-0.2 0.31 0.13 0.37 0.05 0.64 0.47 0.33 0.5 0.34 1.73 0.47 0.97-0.65 3.74 1 7.58 4.92 8.66 3.39 0.93 8.01-1.15 8.66-4.92 1.33-7.73-2.28-15.93-10.16-18.5-7.13-2.32-15.42 1.04-18.8 7.78-1.7 3.4-0.9 7.63 2.53 9.63 3.13 1.84 7.93 0.9 9.64-2.52zM528.68 406.48c1-1.84 2.08-1.48 2.5 0.67 0.73 3.73 5.19 5.87 8.66 4.92 3.9-1.07 5.65-4.92 4.92-8.66-1.21-6.15-6.48-11.09-12.66-11.97-6.29-0.89-12.55 2.35-15.58 7.93-4.33 7.97 7.82 15.08 12.16 7.11zM436.18 571.72c-0.25 0.65 0.17-0.21 0.61-0.04-0.68-0.27-0.21-0.41 0.18 0.34-0.47-0.9 0.06 1.06 0.02 0.2 0.18 3.8 3.11 7.04 7.04 7.04 3.67 0 7.22-3.22 7.04-7.04-0.34-7.07-5.18-13.38-12.4-14.42-7.36-1.06-13.5 3.51-16.07 10.17-1.37 3.55 1.51 7.73 4.92 8.66 3.97 1.1 7.28-1.35 8.66-4.91zM573.26 563.99c1.9-6.73-0.5-13.99-6.14-18.13-5.44-3.99-13.49-4.07-18.97-0.08-3.07 2.23-4.58 6.12-2.53 9.63 1.77 3.03 6.54 4.77 9.63 2.53 1.61-1.17 2.75-1.62 4.12-0.41-0.82-0.72 0.48 1.12 0.44 1.03 0.24 0.59 0.09 0.87-0.13 1.68-2.47 8.75 11.11 12.48 13.58 3.75zM625.8 283.41c0.15-0.16 0.81-0.8 0.25-0.35 0.22-0.17 1.01-0.47 0.34-0.21 0.34-0.13 1.09-0.17 0.33-0.09 0.58-0.06 1.03 0.1 0.18-0.06 0.14 0.03 0.56 0.37 0.61 0.56-0.03-0.14-0.24-0.9-0.09-0.09 0.23 1.27 0.08-1.6 0.08 0.69 0.01 9.06 14.1 9.08 14.08 0-0.01-6.12-3.56-11.72-9.24-14.07-5.64-2.33-12.33-0.77-16.5 3.66-6.21 6.6 3.73 16.58 9.96 9.96zM573.19 320.01c-0.23 0.27-0.51 0.42-0.87 0.45 0.82-0.2 0.84-0.25 0.06-0.16 0.85 0.02 0.88-0.01 0.1-0.1 0.71 0.21 0.84 0.24 0.39 0.1a0.962 0.962 0 0 1-0.61-0.4c0.57 0.59 0.62 0.63 0.16 0.1 0.4 0.73 0.42 0.77 0.08 0.13-0.04-0.79-0.04-0.76-0.02 0.09 0.05 3.68 3.21 7.21 7.04 7.04 3.77-0.17 7.09-3.09 7.04-7.04-0.07-5.46-3.13-10.66-8.24-12.82-5.32-2.25-10.75-0.98-15.09 2.66-2.91 2.45-2.52 7.43 0 9.96 2.89 2.88 7.04 2.45 9.96-0.01z" fill="#FFD31A" /><path d="M364.52 735.2s-15.21 34.32 4.67 47.69c19.88 13.37 44.54 24.3 63.12-17.65l-67.79-30.04z" fill="#BBE84D" /><path d="M395.58 811.42c-15.25 0-29.07-7.74-39.99-15.08-25.58-17.21-19-52.05-11.08-69.92 4.03-9.09 14.66-13.19 23.75-9.16l67.8 30.04a17.96 17.96 0 0 1 9.5 9.98 17.96 17.96 0 0 1-0.34 13.77c-9.39 21.19-21.99 34.2-37.45 38.66a43.933 43.933 0 0 1-12.19 1.71z m-22.17-52.51c-0.05 3.56 0.6 6.43 2.28 7.56 3.87 2.6 15.62 10.51 22.11 8.64 1.56-0.45 3.21-1.55 4.9-3.22l-29.29-12.98z" fill="#B9DD26" /><path d="M443.12 664.86s193.75-169.18 254.75-149.14c0 0-31.98-4.27-64.47 58.77-37.38 72.53-102.56 223.57-219.37 171.8-128.49-56.94-58.43-195.34-29.81-271.74C414.8 392.91 393.84 374 393.84 374s49.31 14.86 38.7 94.01 10.58 196.85 10.58 196.85z" fill="#C6EF45" /><path d="M454.7 771.53c-18.46 0-37.34-4.24-56.45-12.71-60.85-26.97-90.97-73.26-89.52-137.61 1.17-51.74 22.32-105.27 39.31-148.29 3.32-8.39 6.45-16.32 9.19-23.63 21.33-56.95 16.59-79.9 14.32-86.12-0.91-1.48-1.75-2.83-2.52-4.04-4.82-7.6-3.28-17.59 3.6-23.39 6.88-5.8 16.98-5.64 23.66 0.39 1.98 1.78 4.97 5.17 7.62 10.95 12.51 20.55 44.78 76.27 48.83 110.57 5.64 47.71 5.4 105.1 4.1 146.19a446.61 446.61 0 0 1 37.49-34.71c27.65-22.8 57.32-41.61 88.19-55.89 36.08-16.7 73.88-27.22 112.46-31.32 6.62-1.3 11.11-0.89 12.47-0.71 9.12 1.22 15.85 9.11 15.61 18.31-0.24 9.19-7.37 16.73-16.54 17.48-2.01 0.16-4.01 0.35-6 0.55-7.33 1.97-26.44 10.93-47.49 51.78-2.76 5.36-5.69 11.16-8.78 17.31-20.51 40.7-48.6 96.44-86.8 135.65-21.97 22.55-45.36 37.53-69.53 44.53-10.87 3.13-21.97 4.71-33.22 4.71z m-51.21-349.37c-2.9 11.7-6.98 24.89-12.55 39.75-2.85 7.61-6.04 15.68-9.42 24.23-15.94 40.35-35.78 90.57-36.8 135.88-1.12 49.78 20.52 82.79 68.12 103.88 43.28 19.18 81.04 10.04 118.84-28.76 34.33-35.24 60.98-88.12 80.43-126.73 3.13-6.22 6.09-12.09 8.93-17.6 4-7.77 8.05-14.7 12.08-20.89-116.49 38.51-181.15 133.37-181.91 134.51a18.004 18.004 0 0 1-20.81 7.02c-7.73-2.66-12.7-10.18-12.1-18.33 0.08-1.13 8.1-113.67-1.31-193.25-1.22-10.3-6.61-24.72-13.5-39.71z" fill="#B9DD26" /></svg>